<?xml version="1.0" encoding="utf-8"?>
<svg width="80px" height="80px" viewBox="0 0 80 80" version="1.1" xmlns:xlink="http://www.w3.org/1999/xlink" xmlns="http://www.w3.org/2000/svg">
  <defs>
    <path d="M14.999 0L65.001 0Q65.3692 0 65.737 0.0180669Q66.1047 0.0361339 66.4712 0.0722243Q66.8376 0.108315 67.2018 0.162341Q67.566 0.216368 67.9271 0.288202Q68.2883 0.360035 68.6455 0.449501Q69.0026 0.538968 69.355 0.645852Q69.7073 0.752736 70.054 0.87678Q70.4007 1.00082 70.7409 1.14173Q71.081 1.28264 71.4139 1.44006Q71.7467 1.59749 72.0715 1.77106Q72.3962 1.94463 72.712 2.13393Q73.0278 2.32322 73.334 2.52779Q73.6401 2.73235 73.9359 2.95169Q74.2316 3.17103 74.5163 3.40462Q74.8009 3.6382 75.0737 3.88547Q75.3465 4.13274 75.6069 4.39311Q75.8673 4.65346 76.1145 4.92629Q76.3618 5.19911 76.5954 5.48373Q76.829 5.76836 77.0483 6.06411Q77.2676 6.35985 77.4722 6.666Q77.6768 6.97215 77.8661 7.28797Q78.0554 7.60379 78.2289 7.92852Q78.4025 8.25325 78.5599 8.5861Q78.7174 8.91895 78.8583 9.25913Q78.9992 9.59931 79.1232 9.94599Q79.2473 10.2927 79.3541 10.645Q79.461 10.9974 79.5505 11.3545Q79.64 11.7117 79.7118 12.0728Q79.7836 12.434 79.8376 12.7982Q79.8917 13.1624 79.9278 13.5288Q79.9639 13.8953 79.9819 14.263Q80 14.6308 80 14.999L80 65.001Q80 65.3692 79.9819 65.737Q79.9639 66.1047 79.9278 66.4712Q79.8917 66.8376 79.8376 67.2018Q79.7836 67.566 79.7118 67.9271Q79.64 68.2883 79.5505 68.6455Q79.461 69.0026 79.3541 69.355Q79.2473 69.7073 79.1232 70.054Q78.9992 70.4007 78.8583 70.7409Q78.7174 71.081 78.5599 71.4139Q78.4025 71.7467 78.2289 72.0715Q78.0554 72.3962 77.8661 72.712Q77.6768 73.0278 77.4722 73.334Q77.2676 73.6401 77.0483 73.9359Q76.829 74.2316 76.5954 74.5163Q76.3618 74.8009 76.1145 75.0737Q75.8673 75.3465 75.6069 75.6069Q75.3465 75.8673 75.0737 76.1145Q74.8009 76.3618 74.5163 76.5954Q74.2316 76.829 73.9359 77.0483Q73.6401 77.2676 73.334 77.4722Q73.0279 77.6768 72.712 77.8661Q72.3962 78.0554 72.0715 78.2289Q71.7467 78.4025 71.4139 78.5599Q71.081 78.7174 70.7409 78.8583Q70.4007 78.9992 70.054 79.1232Q69.7073 79.2473 69.355 79.3541Q69.0026 79.461 68.6455 79.5505Q68.2883 79.64 67.9272 79.7118Q67.566 79.7836 67.2018 79.8376Q66.8376 79.8917 66.4712 79.9278Q66.1047 79.9639 65.737 79.9819Q65.3692 80 65.001 80L14.999 80Q14.6308 80 14.263 79.9819Q13.8953 79.9639 13.5288 79.9278Q13.1624 79.8917 12.7982 79.8376Q12.434 79.7836 12.0728 79.7118Q11.7117 79.64 11.3545 79.5505Q10.9974 79.461 10.645 79.3541Q10.2927 79.2473 9.94599 79.1232Q9.59931 78.9992 9.25913 78.8583Q8.91895 78.7174 8.5861 78.5599Q8.25325 78.4025 7.92852 78.2289Q7.60379 78.0554 7.28797 77.8661Q6.97215 77.6768 6.666 77.4722Q6.35985 77.2676 6.06411 77.0483Q5.76836 76.829 5.48373 76.5954Q5.19911 76.3618 4.92629 76.1145Q4.65346 75.8673 4.39311 75.6069Q4.13274 75.3465 3.88547 75.0737Q3.6382 74.8009 3.40462 74.5163Q3.17103 74.2316 2.95169 73.9359Q2.73235 73.6401 2.52779 73.334Q2.32322 73.0279 2.13393 72.712Q1.94463 72.3962 1.77106 72.0715Q1.59749 71.7467 1.44006 71.4139Q1.28264 71.081 1.14173 70.7409Q1.00082 70.4007 0.87678 70.054Q0.752736 69.7073 0.645852 69.355Q0.538968 69.0026 0.449501 68.6455Q0.360035 68.2883 0.288202 67.9272Q0.216368 67.566 0.162341 67.2018Q0.108315 66.8376 0.0722243 66.4712Q0.0361339 66.1047 0.0180669 65.737Q0 65.3692 0 65.001L0 14.999Q0 14.6308 0.0180669 14.263Q0.0361339 13.8953 0.0722243 13.5288Q0.108315 13.1624 0.162341 12.7982Q0.216368 12.434 0.288202 12.0728Q0.360035 11.7117 0.449501 11.3545Q0.538968 10.9974 0.645852 10.645Q0.752736 10.2927 0.87678 9.94599Q1.00082 9.59931 1.14173 9.25913Q1.28264 8.91895 1.44006 8.5861Q1.59749 8.25325 1.77106 7.92852Q1.94463 7.60379 2.13393 7.28797Q2.32322 6.97215 2.52779 6.666Q2.73235 6.35985 2.95169 6.06411Q3.17103 5.76836 3.40462 5.48373Q3.6382 5.19911 3.88547 4.92629Q4.13274 4.65346 4.39311 4.39311Q4.65346 4.13274 4.92629 3.88547Q5.19911 3.6382 5.48373 3.40462Q5.76836 3.17103 6.06411 2.95169Q6.35985 2.73235 6.666 2.52779Q6.97215 2.32322 7.28797 2.13393Q7.60379 1.94463 7.92852 1.77106Q8.25325 1.59749 8.5861 1.44006Q8.91895 1.28264 9.25913 1.14173Q9.59931 1.00082 9.94599 0.87678Q10.2927 0.752736 10.645 0.645852Q10.9974 0.538968 11.3545 0.449501Q11.7117 0.360035 12.0728 0.288202Q12.434 0.216368 12.7982 0.162341Q13.1624 0.108315 13.5288 0.0722243Q13.8953 0.0361339 14.263 0.0180669Q14.6308 0 14.999 0L14.999 0Z" id="path_1" />
    <clipPath id="clip_1">
      <use xlink:href="#path_1" />
    </clipPath>
  </defs>
  <g id="Group">
    <g id="Rectangle-12-Copy-2">
      <g clip-path="url(#clip_1)">
        <use xlink:href="#path_1" fill="none" stroke="#C5D5E6" stroke-width="4" />
      </g>
    </g>
    <path d="M32.3359 12.7529L29.5406 31.7271C29.2629 33.1671 28.6253 33.7976 28.1617 34.2588C27.7123 34.7059 27.4135 35.0024 27.4135 36.4541L27.4135 38.8235C27.4135 39.4729 26.8864 40 26.237 40C25.5876 40 25.0606 39.4729 25.0606 38.8235L25.0606 36.4541C25.0606 34.2071 25.7147 33.3741 26.5053 32.5906C26.87 32.2282 27.0888 32.0094 27.2206 31.3341L30.0088 12.4188C30.0512 12.1294 30.1288 11.1482 29.3664 11.0424C29.1029 11.0047 28.8888 11.0471 28.7194 11.1765C28.4935 11.3435 28.3335 11.6682 28.277 12.0659L27.1076 19.8682C27.0488 20.2706 26.7829 20.6118 26.4112 20.7741C26.0394 20.9365 25.6088 20.8918 25.2723 20.6588C25.1547 20.6776 24.957 20.6047 24.7594 20.4753C24.4017 20.2471 24.197 19.8447 24.2206 19.4212L24.8912 6.98353C24.9453 6.32941 24.4912 5.78588 23.8747 5.73176C23.5759 5.70353 23.2888 5.79765 23.0606 5.98824C22.83 6.18118 22.6935 6.44941 22.6676 6.74353L21.5782 17.9953C21.517 18.6282 21.0159 19.0871 20.3288 19.0565C20.1382 19.0447 19.9453 19.0329 19.75 19.0306C19.117 19.0165 18.6088 18.5059 18.597 17.8753L18.3264 3.47765C18.3264 2.84706 17.8323 2.35294 17.2253 2.35294C16.6182 2.35294 16.1241 2.84706 16.1241 3.45412L15.8464 18.9506C15.837 19.3976 15.5782 19.8024 15.1735 19.9929C15.0276 20.0635 14.8864 20.1341 14.7523 20.2094C14.4064 20.4071 13.9853 20.4141 13.6323 20.2282C13.2794 20.0447 13.0417 19.6941 13.0017 19.2988L11.79 6.76C11.7641 6.45176 11.6253 6.18353 11.3994 5.99294C11.1712 5.80235 10.8629 5.71529 10.5876 5.73647C10.2912 5.76235 10.0253 5.90118 9.83468 6.12941C9.64645 6.35529 9.55468 6.64235 9.58057 6.93647L10.7641 23.6353C10.8017 24.1482 10.4982 24.6282 10.0182 24.8141C9.53351 25.0024 8.98763 24.8541 8.66998 24.4494L5.02057 19.8541C4.54292 19.0541 3.69821 18.8306 3.0441 19.2094C2.7241 19.3953 2.49586 19.6918 2.40174 20.0471C2.30763 20.4 2.35468 20.7718 2.54292 21.0894L10.8464 35.4118C11.0347 35.7388 11.3429 35.9671 11.71 36.0565C12.237 36.1835 12.6088 36.6565 12.6088 37.2L12.6088 38.8235C12.6088 39.4729 12.0817 40 11.4323 40C10.7829 40 10.2559 39.4729 10.2559 38.8235L10.2559 38C9.65821 37.6776 9.16174 37.1976 8.81115 36.5929L0.505272 22.2706C0.00409599 21.4094 -0.130022 20.4047 0.128802 19.4424C0.382919 18.4776 1.00174 17.6729 1.86763 17.1718C3.65115 16.1435 5.93351 16.7553 6.95939 18.5341L8.14998 20.0259L7.23468 7.12471C7.15468 6.22588 7.43704 5.32706 8.02998 4.61647C8.62292 3.91059 9.46057 3.47529 10.3806 3.39294C11.3147 3.30824 12.2041 3.59765 12.9147 4.19294C13.2582 4.48235 13.5335 4.82588 13.7382 5.20706L13.7712 3.43529C13.7712 1.54824 15.3217 0 17.2253 0C19.1288 0 20.6794 1.55059 20.6794 3.45647L20.7123 5.21176C20.9194 4.82824 21.197 4.48235 21.5429 4.19059C22.2559 3.59294 23.1617 3.30588 24.0794 3.39059C25.9876 3.55765 27.4017 5.24471 27.2347 7.15059L27.11 9.45177C27.1712 9.39765 27.237 9.34588 27.3006 9.29647C27.9782 8.78823 28.7994 8.59059 29.6959 8.71294C31.5429 8.96941 32.6323 10.6329 32.3359 12.7529L32.3359 12.7529Z" transform="translate(24 20)" id="Shape" fill="#C5D5E6" fill-rule="evenodd" stroke="none" />
  </g>
</svg>