<?xml version="1.0" encoding="utf-8"?>
<svg width="30px" height="30px" viewBox="0 0 30 30" version="1.1" xmlns:xlink="http://www.w3.org/1999/xlink" xmlns="http://www.w3.org/2000/svg">
  <g id="Финансово">
    <path d="M4.999 0L25.001 0Q25.1237 0 25.2463 0.00602151Q25.3689 0.012043 25.491 0.0240715Q25.6131 0.0361001 25.7345 0.0541066Q25.8559 0.0721132 25.9763 0.0960544Q26.0966 0.119996 26.2157 0.149814Q26.3347 0.179632 26.4521 0.215255Q26.5696 0.250879 26.6851 0.292221Q26.8007 0.333564 26.914 0.380526Q27.0274 0.427489 27.1383 0.479957Q27.2493 0.532426 27.3575 0.590276Q27.4657 0.648125 27.571 0.711215Q27.6763 0.774305 27.7783 0.842483Q27.8803 0.910662 27.9789 0.983765Q28.0775 1.05687 28.1723 1.13472Q28.2672 1.21257 28.3581 1.29499Q28.449 1.3774 28.5358 1.46417Q28.6226 1.55095 28.705 1.64188Q28.7874 1.73281 28.8653 1.82767Q28.9431 1.92253 29.0162 2.0211Q29.0893 2.11967 29.1575 2.2217Q29.2257 2.32374 29.2888 2.429Q29.3519 2.53426 29.4097 2.64249Q29.4676 2.75072 29.52 2.86165Q29.5725 2.97259 29.6195 3.08597Q29.6664 3.19934 29.7078 3.31489Q29.7491 3.43043 29.7847 3.54787Q29.8204 3.6653 29.8502 3.78434Q29.88 3.90338 29.9039 4.02374Q29.9279 4.1441 29.9459 4.26549Q29.9639 4.38688 29.9759 4.50901Q29.988 4.63114 29.994 4.75371Q30 4.87628 30 4.999L30 25.001Q30 25.1237 29.994 25.2463Q29.988 25.3689 29.9759 25.491Q29.9639 25.6131 29.9459 25.7345Q29.9279 25.8559 29.9039 25.9763Q29.88 26.0966 29.8502 26.2157Q29.8204 26.3347 29.7847 26.4521Q29.7491 26.5696 29.7078 26.6851Q29.6664 26.8007 29.6195 26.914Q29.5725 27.0274 29.52 27.1383Q29.4676 27.2493 29.4097 27.3575Q29.3519 27.4657 29.2888 27.571Q29.2257 27.6763 29.1575 27.7783Q29.0893 27.8803 29.0162 27.9789Q28.9431 28.0775 28.8653 28.1723Q28.7874 28.2672 28.705 28.3581Q28.6226 28.449 28.5358 28.5358Q28.449 28.6226 28.3581 28.705Q28.2672 28.7874 28.1723 28.8653Q28.0775 28.9431 27.9789 29.0162Q27.8803 29.0893 27.7783 29.1575Q27.6763 29.2257 27.571 29.2888Q27.4657 29.3519 27.3575 29.4097Q27.2493 29.4676 27.1383 29.52Q27.0274 29.5725 26.914 29.6195Q26.8007 29.6664 26.6851 29.7078Q26.5696 29.7491 26.4521 29.7847Q26.3347 29.8204 26.2157 29.8502Q26.0966 29.88 25.9763 29.9039Q25.8559 29.9279 25.7345 29.9459Q25.6131 29.9639 25.491 29.9759Q25.3689 29.988 25.2463 29.994Q25.1237 30 25.001 30L4.999 30Q4.87628 30 4.75371 29.994Q4.63114 29.988 4.50901 29.9759Q4.38688 29.9639 4.26549 29.9459Q4.1441 29.9279 4.02374 29.9039Q3.90338 29.88 3.78434 29.8502Q3.6653 29.8204 3.54787 29.7847Q3.43043 29.7491 3.31489 29.7078Q3.19934 29.6664 3.08597 29.6195Q2.97259 29.5725 2.86165 29.52Q2.75072 29.4676 2.64249 29.4097Q2.53426 29.3519 2.429 29.2888Q2.32374 29.2257 2.2217 29.1575Q2.11967 29.0893 2.0211 29.0162Q1.92253 28.9431 1.82767 28.8653Q1.73281 28.7874 1.64188 28.705Q1.55095 28.6226 1.46417 28.5358Q1.3774 28.449 1.29499 28.3581Q1.21257 28.2672 1.13472 28.1723Q1.05687 28.0775 0.983765 27.9789Q0.910662 27.8803 0.842483 27.7783Q0.774305 27.6763 0.711215 27.571Q0.648125 27.4657 0.590276 27.3575Q0.532426 27.2493 0.479957 27.1383Q0.427489 27.0274 0.380526 26.914Q0.333564 26.8007 0.292221 26.6851Q0.250879 26.5696 0.215255 26.4521Q0.179632 26.3347 0.149814 26.2157Q0.119996 26.0966 0.0960544 25.9763Q0.0721132 25.8559 0.0541066 25.7345Q0.0361001 25.6131 0.0240715 25.491Q0.012043 25.3689 0.00602151 25.2463Q0 25.1237 0 25.001L0 4.999Q0 4.87628 0.00602151 4.75371Q0.012043 4.63114 0.0240715 4.50901Q0.0361001 4.38688 0.0541066 4.26549Q0.0721132 4.1441 0.0960544 4.02374Q0.119996 3.90338 0.149814 3.78434Q0.179632 3.6653 0.215255 3.54787Q0.250879 3.43043 0.292221 3.31489Q0.333564 3.19934 0.380526 3.08597Q0.427489 2.97259 0.479957 2.86165Q0.532426 2.75072 0.590276 2.64249Q0.648125 2.53426 0.711215 2.429Q0.774305 2.32374 0.842483 2.2217Q0.910662 2.11967 0.983765 2.0211Q1.05687 1.92253 1.13472 1.82767Q1.21257 1.73281 1.29499 1.64188Q1.3774 1.55095 1.46417 1.46417Q1.55095 1.3774 1.64188 1.29499Q1.73281 1.21257 1.82767 1.13472Q1.92253 1.05687 2.0211 0.983765Q2.11967 0.910662 2.2217 0.842483Q2.32374 0.774305 2.429 0.711215Q2.53426 0.648125 2.64249 0.590276Q2.75072 0.532426 2.86165 0.479957Q2.97259 0.427489 3.08597 0.380526Q3.19934 0.333564 3.31489 0.292221Q3.43043 0.250879 3.54787 0.215255Q3.6653 0.179632 3.78434 0.149814Q3.90338 0.119996 4.02374 0.0960544Q4.1441 0.0721132 4.26549 0.0541066Q4.38688 0.0361001 4.50901 0.0240715Q4.63114 0.012043 4.75371 0.00602151Q4.87628 0 4.999 0Z" id="Rectangle-12-Copy-3" fill="#8492F3" fill-rule="evenodd" stroke="none" />
    <path d="M1.656 0C0.751765 0 0.0148235 0.730588 0.0148235 1.62847L0 1.62847L0 13.2109C0 14.1088 0.735882 14.8394 1.64118 14.8394L15.9268 14.8394L15.9268 13.0871L18 13.0871L18 1.88085e-15L1.656 1.88085e-15L1.656 0ZM1.64118 13.7795C1.32035 13.7795 1.05882 13.5244 1.05882 13.2099L1.05882 3.06318C1.08424 3.07059 1.116 3.06847 1.14141 3.07588C1.29282 3.12035 1.45165 3.14788 1.62106 3.15106C1.62847 3.15106 1.63376 3.15424 1.64118 3.15424L14.8691 3.15424L14.8691 6.36776L11.8419 6.36776C10.9292 6.36776 10.1869 7.08035 10.1869 7.956L10.1869 9.01482C10.1869 9.89047 10.9292 10.6031 11.8419 10.6031L14.8691 10.6031L14.8691 13.7795L1.64118 13.7795L1.64118 13.7795ZM11.8408 9.54424C11.5115 9.54424 11.2447 9.30706 11.2447 9.01482L11.2447 7.956C11.2447 7.66376 11.5126 7.42659 11.8408 7.42659L16.9412 7.42659L16.9412 9.54424L11.8408 9.54424ZM16.9412 12.0272L15.9268 12.0272L15.9268 10.6031L16.9412 10.6031L16.9412 12.0272ZM15.9268 6.36776L15.9268 2.09541L1.656 2.09541C1.36694 2.09541 1.07365 1.95035 1.07365 1.62847C1.07471 1.314 1.33624 1.05882 1.656 1.05882L16.9412 1.05882L16.9412 6.36776L15.9268 6.36776Z" transform="translate(6 8)" id="Shape" fill="#FFFFFF" stroke="none" />
  </g>
</svg>