<?xml version="1.0" encoding="utf-8"?>
<svg width="54px" height="37px" viewBox="0 0 54 15" version="1.1" xmlns:xlink="http://www.w3.org/1999/xlink" xmlns="http://www.w3.org/2000/svg">
  <path d="M27.4753 3.15957C33.0181 10.2347 52.5 35.1029 52.5 35.1029C52.5 35.1029 26.8945 35.1029 25 35.1029C23.1055 35.1029 0 35.1029 0 35.1029L22.6717 3.2693Q22.7222 3.19835 22.7768 3.13046Q22.8313 3.06257 22.8897 2.99796Q22.9481 2.93334 23.0102 2.87223Q23.0723 2.81112 23.1378 2.75371Q23.2033 2.6963 23.272 2.64279Q23.3407 2.58928 23.4124 2.53985Q23.4841 2.49042 23.5586 2.44523Q23.633 2.40004 23.71 2.35925Q23.7869 2.31846 23.8661 2.28221Q23.9453 2.24595 24.0265 2.21436Q24.1077 2.18276 24.1905 2.15592Q24.2734 2.12909 24.3577 2.10711Q24.4419 2.08513 24.5274 2.06808Q24.6128 2.05103 24.699 2.03896Q24.7853 2.0269 24.8721 2.01986Q24.9589 2.01282 25.046 2.01083Q25.1331 2.00884 25.2201 2.01191Q25.3071 2.01498 25.3939 2.02309Q25.4806 2.0312 25.5667 2.04434Q25.6528 2.05747 25.738 2.07558Q25.8232 2.09369 25.9072 2.11671Q25.9912 2.13973 26.0737 2.16759Q26.1562 2.19545 26.237 2.22805Q26.3178 2.26065 26.3965 2.29788Q26.4752 2.33511 26.5517 2.37685Q26.6281 2.41859 26.702 2.4647Q26.7759 2.51081 26.847 2.56112Q26.9181 2.61144 26.9862 2.6658Q27.0542 2.72015 27.119 2.77837Q27.1838 2.83659 27.2451 2.89846Q27.3064 2.96034 27.364 3.02567Q27.4216 3.091 27.4753 3.15957L27.4753 3.15957Z" transform="translate(0.5 0.5)" id="Triangle-2" fill="#FFFFFF" fill-rule="evenodd" stroke="#C5D5E6" stroke-width="1" />
</svg>