<?xml version="1.0" encoding="utf-8"?>
<svg width="30px" height="31px" viewBox="0 0 30 31" version="1.1" xmlns:xlink="http://www.w3.org/1999/xlink" xmlns="http://www.w3.org/2000/svg">
  <g id="Group">
    <path d="M1.47266 12.5704L2.15463 12.5704C2.14999 12.6062 2.14689 12.6424 2.14689 12.6794L2.14689 26.0039L1.68337 26.0039C1.21675 26.0039 0.838296 26.3836 0.838296 26.8518C0.838296 27.32 1.21675 27.6998 1.68337 27.6998L2.99196 27.6998L6.19942 27.6998L9.40703 27.6998L12.6146 27.6998L15.8221 27.6998L19.0297 27.6998L22.2373 27.6998L25.4448 27.6998L26.7534 27.6998C27.22 27.6998 27.5984 27.32 27.5984 26.8518C27.5984 26.3836 27.22 26.0039 26.7534 26.0039L26.2898 26.0039L26.2898 12.6794C26.2898 12.6424 26.2867 12.6062 26.2821 12.5704L26.9641 12.5704C27.6008 12.5704 28.1628 12.1627 28.3622 11.5559C28.5617 10.949 28.3517 10.2859 27.8397 9.90575L14.7211 0.166305C14.4227 -0.0554349 14.0144 -0.0554349 13.7159 0.166305L0.596888 9.90575C0.0850569 10.2858 -0.124943 10.949 0.0744935 11.5559C0.27393 12.1627 0.835761 12.5704 1.47266 12.5704L1.47266 12.5704ZM14.9762 26.0039L13.4589 26.0039L13.4589 12.6794C13.4589 12.6424 13.4558 12.6062 13.4512 12.5704L14.9841 12.5704C14.9795 12.6062 14.9764 12.6424 14.9764 12.6794L14.9764 26.0039L14.9762 26.0039ZM8.56246 26.0039L7.04486 26.0039L7.04486 12.6794C7.04486 12.6424 7.04176 12.6062 7.03711 12.5704L8.57021 12.5704C8.56556 12.6062 8.56246 12.6424 8.56246 12.6794L8.56246 26.0039ZM3.83594 26.0038L3.83594 13.5273L5.35326 13.5273L5.35326 26.0038L3.83594 26.0038ZM10.252 26.0038L10.252 13.5273L11.7694 13.5273L11.7694 26.0038L10.252 26.0038ZM16.668 26.0038L16.668 13.5273L18.1854 13.5273L18.1854 26.0038L16.668 26.0038ZM23.082 26.0038L23.082 13.5273L24.5994 13.5273L24.5994 26.0038L23.082 26.0038ZM21.3924 12.6794L21.3924 26.0039L19.8749 26.0039L19.8749 12.6794C19.8749 12.6424 19.8718 12.6062 19.8672 12.5704L21.4003 12.5704C21.3956 12.6062 21.3924 12.6424 21.3924 12.6794L21.3924 12.6794ZM14.2176 1.90283L26.3024 10.8745L2.13281 10.8745L14.2176 1.90283L14.2176 1.90283Z" transform="translate(0.7480469 0)" id="Shape" fill="#FFFFFF" stroke="none" />
    <path d="M29.0908 0L0.84507 0C0.378451 0 0 0.379742 0 0.847953C0 1.31616 0.378451 1.69591 0.84507 1.69591L29.0908 1.69591C29.5575 1.69591 29.9359 1.31616 29.9359 0.847953C29.9359 0.379742 29.5576 0 29.0908 0Z" transform="translate(0 28.717773)" id="Shape" fill="#FFFFFF" fill-rule="evenodd" stroke="none" />
  </g>
</svg>