<?xml version="1.0" encoding="utf-8"?>
<svg width="30px" height="31px" viewBox="0 0 30 31" version="1.1" xmlns:xlink="http://www.w3.org/1999/xlink" xmlns="http://www.w3.org/2000/svg">
  <path d="M19.3868 0L5.95227 0L0 27.3225L7.88318 27.3225L9.81409 18.2686L15.4463 18.2686C20.8336 18.2686 25.3391 14.9468 26.5469 9.29864C27.9119 2.90489 23.326 0 19.3868 0ZM13.5092 13.037L10.9401 13.037L12.6286 5.56295L16.4898 5.56295C17.8142 5.56295 18.8172 6.35182 19.1468 7.51023C18.9777 7.48091 18.8209 7.43011 18.6361 7.43011L14.7753 7.43011L13.5092 13.037ZM19.1448 9.29932C18.6747 11.3277 16.7472 12.9464 14.7845 13.0224L15.7088 8.92364L19.2089 8.92364C19.1877 9.04875 19.1792 9.16943 19.1448 9.29932ZM28.693 11.1661C29.145 9.04875 28.9353 7.32239 28.3227 5.94818C29.6005 7.47205 30.2618 9.68284 29.6264 12.6597C28.4185 18.3072 23.9124 21.629 18.526 21.629L12.8942 21.629L10.9636 30.6818L3.07977 30.6818L3.40705 29.1883L10.0302 29.1883L11.9608 20.1355L17.593 20.1355C22.98 20.1355 27.4855 16.8136 28.693 11.1661Z" id="PayPal" fill="#FFFFFF" stroke="none" />
</svg>