<?xml version="1.0" encoding="utf-8"?>
<svg width="101px" height="31px" viewBox="0 0 101 31" version="1.1" xmlns:xlink="http://www.w3.org/1999/xlink" xmlns="http://www.w3.org/2000/svg">
  <defs>
    <path d="M0 0L100.774 0L100.774 30.9922L0 30.9922L0 0Z" id="path_1" />
    <clipPath id="mask_1">
      <use xlink:href="#path_1" />
    </clipPath>
  </defs>
  <g id="privat">
    <path d="M0 0L100.774 0L100.774 30.9922L0 30.9922L0 0Z" id="Background" fill="none" fill-rule="evenodd" stroke="none" />
    <g clip-path="url(#mask_1)">
      <path d="M15.506 0L15.506 0C24.0732 0 31.0119 6.93869 31.0119 15.506L31.0119 15.506C31.0119 24.0732 24.0732 31.0119 15.5059 31.0119L15.5059 31.0119C6.93869 31.0119 0 24.0732 0 15.506L0 15.506C3.01212e-06 6.93869 6.9387 0 15.506 0L15.506 0Z" transform="translate(-0.009887695 -0.009870529)" id="Shape" fill="none" fill-rule="evenodd" stroke="none" />
      <path d="M15.506 0C6.93869 0 0 6.93869 0 15.506C0 24.0732 6.94856 31.0119 15.506 31.0119C24.0732 31.0119 31.0119 24.0732 31.0119 15.506C31.0119 6.93869 24.0732 0 15.506 0L15.506 0ZM15.5059 29.3044C7.88621 29.3044 1.70752 23.1257 1.70752 15.506C1.70752 7.88622 7.88621 1.70753 15.5059 1.70753C23.1257 1.70753 29.3044 7.88622 29.3044 15.506C29.3044 23.1257 23.1257 29.3044 15.5059 29.3044L15.5059 29.3044Z" transform="translate(-0.009887695 -0.009870529)" id="Shape" fill="#FFFFFF" fill-rule="evenodd" stroke="none" />
      <path d="M13.6602 2.07272L10.2057 7.19531L13.6602 7.19531L13.6602 2.07272L13.6602 2.07272ZM14.9631 0L14.9631 7.20518L16.4831 7.20518L16.4831 8.50804L14.9631 8.50804L14.9631 11.2026L13.6504 11.2026L13.6504 8.50804L8.76465 8.50804L8.76465 7.10648L13.6898 0.00986921L14.9631 0L14.9631 0L14.9631 0ZM7.32363 9.88986L7.32363 11.1927L0 11.1927L0 11.1532C0.069092 9.92934 0.384934 9.03116 0.996882 8.2909C1.49039 7.67895 2.09247 7.22493 3.32623 6.45506C3.32623 6.45506 3.76051 6.1787 3.88883 6.09973C4.55013 5.67532 4.97454 5.33973 5.31999 4.9548C5.74441 4.46129 5.96155 3.92831 5.96155 3.29662C5.96155 2.07273 5.09298 1.23377 3.84935 1.23377C2.39844 1.23377 1.65818 2.33922 1.6187 3.98753L1.6187 4.01714L0.315845 4.01714L0.315845 3.98753L0.305974 3.69142C0.305974 1.48052 1.74701 1.90735e-06 3.91844 1.90735e-06C6.04051 1.90735e-06 7.42233 1.28312 7.42233 3.26701C7.42233 4.28363 7.05713 5.10285 6.35636 5.82337C5.83324 6.3761 5.29038 6.74129 4.07636 7.48155C4.05662 7.49142 4.04675 7.50129 4.02701 7.51116C3.96779 7.54077 3.7013 7.69869 3.6322 7.74804C3.04987 8.09349 2.69454 8.34025 2.3787 8.63635C1.99376 9.00155 1.73714 9.40622 1.6187 9.87999L7.32362 9.87999L7.32362 9.88986L7.32363 9.88986Z" transform="translate(7.2545166 9.899726)" id="Shape" fill="#FFFFFF" fill-rule="evenodd" stroke="none" />
      <path d="M0 0L5.16207 0C6.44518 0 7.45194 0.305974 8.1922 0.90805C8.93246 1.52 9.30752 2.41818 9.30752 3.62233C9.30752 4.7574 8.96206 5.65558 8.27116 6.31687C7.58025 6.97817 6.64259 7.31376 5.44831 7.31376L2.09247 7.31376L2.09247 11.8935L0 11.8935L0 0L0 0ZM2.09244 1.74701L2.09244 5.64571L5.00412 5.64571C6.52412 5.64571 7.27425 4.99428 7.27425 3.69142C7.27425 2.39844 6.45503 1.75688 4.81659 1.75688L2.09244 1.75688L2.09244 1.74701L2.09244 1.74701Z" transform="translate(39.01657 9.248299)" id="Shape" fill="#FFFFFF" fill-rule="evenodd" stroke="none" />
      <path d="M5.04362 0.0394799L5.04362 1.86545C4.70804 1.83584 4.4909 1.8161 4.37246 1.8161C2.71428 1.8161 1.88519 2.89194 1.88519 5.04363L1.88519 8.83375L0 8.83375L0 0.207273L1.78649 0.207273L1.78649 1.92467C2.39844 0.641557 3.36571 0 4.67843 0L5.04362 0.0394799L5.04362 0.0394799Z" transform="translate(49.47888 12.317908)" id="Shape" fill="#FFFFFF" fill-rule="evenodd" stroke="none" />
      <path d="M1.90493 0L1.90493 1.87532L0 1.87532L0 0L1.90493 0L1.90493 0ZM1.90493 3.32623L1.90493 11.9527L0 11.9527L0 3.32623L1.90493 3.32623L1.90493 3.32623Z" transform="translate(55.687164 9.149597)" id="Shape" fill="#FFFFFF" fill-rule="evenodd" stroke="none" />
      <path d="M0 3.01212e-06L2.07272 3.01212e-06L4.28363 6.63272L6.40571 0L8.37973 0L5.29039 8.64622L3.14857 8.64622L0 3.01212e-06L0 3.01212e-06Z" transform="translate(59.260193 12.505431)" id="Shape" fill="#FFFFFF" fill-rule="evenodd" stroke="none" />
      <path d="M0.375057 2.92155C0.572459 0.967273 1.83584 0 4.15531 0C5.23116 0 6.09972 0.207273 6.74128 0.631687C7.38284 1.0561 7.69868 1.7174 7.69868 2.60571L7.69868 6.97817C7.69868 7.22493 7.72829 7.39272 7.78751 7.48155C7.84673 7.57038 7.96518 7.61973 8.14283 7.61973C8.28101 7.61973 8.4192 7.60986 8.57712 7.59012L8.57712 8.93246C8.08361 9.0509 7.67894 9.11999 7.34335 9.11999C6.53401 9.11999 6.06024 8.77454 5.9418 8.08363C5.22128 8.77454 4.20467 9.11999 2.91168 9.11999C2.02337 9.11999 1.31273 8.89298 0.789609 8.42908C0.266488 7.96518 0 7.34337 0 6.54389C0 6.29714 0.0296152 6.07012 0.0789657 5.86285C0.138184 5.65558 0.197402 5.46805 0.276368 5.31012C0.345454 5.1522 0.463903 5.01402 0.63169 4.87584C0.789609 4.73766 0.927793 4.62909 1.03636 4.54026C1.14493 4.45143 1.31273 4.37246 1.55948 4.2935C1.79637 4.21454 1.97402 4.15532 2.09247 4.11584C2.21091 4.07636 2.40831 4.03688 2.70441 3.98753C2.99065 3.94805 3.18805 3.90857 3.27688 3.8987C3.37559 3.87896 3.57299 3.85922 3.86909 3.81974C4.55013 3.73091 5.01402 3.65195 5.26077 3.59273C5.50753 3.53351 5.67531 3.43481 5.76415 3.31637C5.84311 3.22754 5.88258 3.02026 5.88258 2.69455C5.88258 1.82598 5.29038 1.3917 4.10596 1.3917C3.48414 1.3917 3.03012 1.51014 2.73402 1.74702C2.44778 1.9839 2.26025 2.37871 2.18129 2.93143L0.375057 2.93143L0.375057 2.92155L0.375057 2.92155ZM5.85295 4.55999C5.7049 4.63895 5.53711 4.70805 5.34957 4.76727C5.16204 4.82649 5.00412 4.86597 4.88568 4.88571C4.76725 4.90545 4.58958 4.92519 4.33296 4.96467C4.08621 4.99428 3.91842 5.02389 3.83945 5.03376C3.60257 5.06337 3.42491 5.10285 3.28673 5.12259C3.14855 5.1522 2.99063 5.20155 2.79322 5.26077C2.59582 5.32986 2.44777 5.40882 2.3392 5.50753C2.23063 5.60623 2.1418 5.73454 2.06283 5.89246C1.98387 6.05038 1.9444 6.24778 1.9444 6.46492C1.9444 6.87947 2.08258 7.19531 2.34907 7.41246C2.62544 7.63947 3.00049 7.74804 3.494 7.74804C4.34283 7.74804 4.99425 7.52103 5.44829 7.067C5.70491 6.81038 5.83322 6.31687 5.83322 5.57661L5.83322 4.55999L5.85295 4.55999L5.85295 4.55999Z" transform="translate(67.63992 12.268554)" id="Shape" fill="#FFFFFF" fill-rule="evenodd" stroke="none" />
      <path d="M5.08311 2.59584L5.08311 3.98753L3.34597 3.98753L3.34597 8.52778C3.34597 8.79427 3.35584 8.98181 3.36571 9.09038C3.37557 9.19895 3.40519 9.31739 3.46441 9.4457C3.52362 9.57401 3.62233 9.66285 3.76051 9.70233C3.89869 9.75168 4.0961 9.77142 4.33298 9.77142C4.64882 9.77142 4.89557 9.76155 5.08311 9.74181L5.08311 11.2421C4.70804 11.2815 4.27376 11.3112 3.79999 11.3112C3.46441 11.3112 3.1683 11.2816 2.92155 11.2322C2.6748 11.1828 2.45766 11.1236 2.28986 11.0545C2.12207 10.9854 1.98389 10.8769 1.87532 10.7091C1.76675 10.5512 1.67792 10.413 1.6187 10.3044C1.55948 10.1958 1.51013 10.0083 1.48052 9.74181C1.4509 9.47532 1.44103 9.26805 1.44103 9.12986C1.44103 8.99168 1.44103 8.74493 1.44103 8.39948C1.44103 8.36 1.44103 8.32052 1.44103 8.2909C1.44103 8.26129 1.44103 8.23168 1.44103 8.1922C1.44103 8.15272 1.44103 8.11324 1.44103 8.08363L1.44103 3.98753L0 3.98753L0 2.59584L1.44103 2.59584L1.44103 0L3.34597 0L3.34597 2.59584L5.08311 2.59584L5.08311 2.59584Z" transform="translate(76.60196 9.929336)" id="Shape" fill="#FFFFFF" fill-rule="evenodd" stroke="none" />
      <path d="M7.98493 10.1366L7.98493 11.8244L0 11.8244C0.00986771 11.3013 0.0789658 10.8176 0.217138 10.3834C0.355322 9.94908 0.503374 9.57401 0.681029 9.26804C0.848816 8.96207 1.10545 8.64622 1.4509 8.33038C1.78649 8.01453 2.09246 7.74804 2.36883 7.54077C2.6452 7.3335 3.02025 7.06701 3.49403 6.75116C3.52364 6.73142 3.69143 6.62285 3.98753 6.42545C4.28364 6.22805 4.4613 6.1096 4.53039 6.06025C4.59947 6.0109 4.74753 5.89246 4.98441 5.70493C5.2213 5.5174 5.36935 5.36934 5.4483 5.26077C5.51739 5.1522 5.61609 4.99428 5.74441 4.80675C5.87272 4.61921 5.96154 4.42181 6.00103 4.23428C6.04051 4.03688 6.07011 3.82961 6.07011 3.61246C6.07011 3.00052 5.90233 2.51688 5.55687 2.17143C5.22128 1.8161 4.75739 1.64831 4.17505 1.64831C3.83947 1.64831 3.55323 1.69766 3.30648 1.80623C3.05973 1.9148 2.87219 2.05299 2.73401 2.21091C2.59582 2.3787 2.47739 2.59584 2.38855 2.85246C2.29972 3.11896 2.2405 3.36571 2.21089 3.59272C2.18127 3.82961 2.16153 4.0961 2.15167 4.41194L0.29608 4.41194L0.29608 4.11584C0.29608 2.85246 0.651401 1.85558 1.36206 1.11532C2.0727 0.375065 3.03011 0 4.22439 0C5.35946 0 6.27738 0.315843 6.96829 0.957401C7.6592 1.59896 8.00465 2.44779 8.00465 3.50389C8.00465 3.9283 7.93557 4.33298 7.80725 4.70805C7.66907 5.08311 7.53088 5.38908 7.38283 5.62596C7.23478 5.86285 6.96829 6.12934 6.60309 6.44518C6.2379 6.76103 5.96153 6.97817 5.78386 7.09661C5.6062 7.21505 5.28049 7.44207 4.79685 7.76778C3.40517 8.66596 2.56621 9.45557 2.28984 10.1267L7.98489 10.1267L7.98489 10.1366L7.98493 10.1366Z" transform="translate(83.71832 9.327261)" id="Shape" fill="#FFFFFF" fill-rule="evenodd" stroke="none" />
      <path d="M8.31063 7.41246L8.31063 9.02128L6.82025 9.02128L6.82025 11.7948L4.98441 11.7948L4.96467 9.02128L0 9.02128L0 7.13609L5.01402 0L6.82026 0L6.82026 7.42233L8.31063 7.41246L8.31063 7.41246L8.31063 7.41246ZM4.99423 7.41246L4.99423 2.34909L1.56931 7.41246L4.99423 7.41246L4.99423 7.41246Z" transform="translate(92.47308 9.356868)" id="Shape" fill="#FFFFFF" fill-rule="evenodd" stroke="none" />
    </g>
  </g>
</svg>