<?xml version="1.0" encoding="utf-8"?>
<svg width="22px" height="39px" viewBox="0 0 22 39" version="1.1" xmlns:xlink="http://www.w3.org/1999/xlink" xmlns="http://www.w3.org/2000/svg">
  <path d="M21.1703 38.9681L0.568966 38.9681C0.254707 38.9681 0 38.7113 0 38.3945L0 2.69444C0 1.20862 1.199 0 2.673 0L19.0664 0C20.5402 0 21.7394 1.20862 21.7394 2.69444L21.7394 38.3945C21.7392 38.7113 21.4845 38.9681 21.1703 38.9681ZM1.13793 37.821L20.6013 37.821L20.6013 26.7964L1.13793 26.7964L1.13793 37.821ZM1.13793 25.6496L20.6013 25.6496L20.6013 2.69444C20.6013 1.84122 19.9127 1.14706 19.0662 1.14706L2.673 1.14706C1.82657 1.14706 1.13793 1.84122 1.13793 2.69444L1.13793 25.6496ZM9.28969 24.3213L8.99269 24.3213C8.67843 24.3213 8.42372 24.0645 8.42372 23.7478C8.42372 23.431 8.67843 23.1742 8.99269 23.1742L9.28969 23.1742C9.60395 23.1742 9.85865 23.431 9.85865 23.7478C9.85865 24.0645 9.60395 24.3213 9.28969 24.3213ZM6.85129 24.3213L6.55429 24.3213C6.24003 24.3213 5.98533 24.0645 5.98533 23.7478C5.98533 23.431 6.24003 23.1742 6.55429 23.1742L6.85129 23.1742C7.16555 23.1742 7.42026 23.431 7.42026 23.7478C7.42026 24.0645 7.16555 24.3213 6.85129 24.3213ZM4.41309 24.3213L4.11609 24.3213C3.80183 24.3213 3.54712 24.0645 3.54712 23.7478C3.54712 23.431 3.80183 23.1742 4.11609 23.1742L4.41309 23.1742C4.72734 23.1742 4.98205 23.431 4.98205 23.7478C4.98205 24.0645 4.72734 24.3213 4.41309 24.3213ZM17.6233 23.5187L13.2209 23.5187C12.9066 23.5187 12.6519 23.262 12.6519 22.9452L12.6519 20.086C12.6519 19.7692 12.9066 19.5124 13.2209 19.5124L17.6233 19.5124C17.9376 19.5124 18.1923 19.7692 18.1923 20.086L18.1923 22.9452C18.1923 23.2618 17.9376 23.5187 17.6233 23.5187ZM13.7898 22.3717L17.0544 22.3717L17.0544 20.6595L13.7898 20.6595L13.7898 22.3717ZM9.28969 22.4904L8.99269 22.4904C8.67843 22.4904 8.42372 22.2336 8.42372 21.9169C8.42372 21.6001 8.67843 21.3433 8.99269 21.3433L9.28969 21.3433C9.60395 21.3433 9.85865 21.6001 9.85865 21.9169C9.85865 22.2336 9.60395 22.4904 9.28969 22.4904ZM6.85129 22.4904L6.55429 22.4904C6.24003 22.4904 5.98533 22.2336 5.98533 21.9169C5.98533 21.6001 6.24003 21.3433 6.55429 21.3433L6.85129 21.3433C7.16555 21.3433 7.42026 21.6001 7.42026 21.9169C7.42026 22.2336 7.16555 22.4904 6.85129 22.4904ZM4.41309 22.4904L4.11609 22.4904C3.80183 22.4904 3.54712 22.2336 3.54712 21.9169C3.54712 21.6001 3.80183 21.3433 4.11609 21.3433L4.41309 21.3433C4.72734 21.3433 4.98205 21.6001 4.98205 21.9169C4.98205 22.2336 4.72734 22.4904 4.41309 22.4904ZM9.28969 20.6595L8.99269 20.6595C8.67843 20.6595 8.42372 20.4027 8.42372 20.086C8.42372 19.7692 8.67843 19.5124 8.99269 19.5124L9.28969 19.5124C9.60395 19.5124 9.85865 19.7692 9.85865 20.086C9.85865 20.4027 9.60395 20.6595 9.28969 20.6595ZM6.85129 20.6595L6.55429 20.6595C6.24003 20.6595 5.98533 20.4027 5.98533 20.086C5.98533 19.7692 6.24003 19.5124 6.55429 19.5124L6.85129 19.5124C7.16555 19.5124 7.42026 19.7692 7.42026 20.086C7.42026 20.4027 7.16555 20.6595 6.85129 20.6595ZM4.41309 20.6595L4.11609 20.6595C3.80183 20.6595 3.54712 20.4027 3.54712 20.086C3.54712 19.7692 3.80183 19.5124 4.11609 19.5124L4.41309 19.5124C4.72734 19.5124 4.98205 19.7692 4.98205 20.086C4.98205 20.4027 4.72734 20.6595 4.41309 20.6595ZM17.6233 18.0511L4.11609 18.0511C3.80183 18.0511 3.54712 17.7943 3.54712 17.4775L3.54712 4.43587C3.54712 4.11909 3.80183 3.86234 4.11609 3.86234L17.6233 3.86234C17.9376 3.86234 18.1923 4.11909 18.1923 4.43587L18.1923 17.4775C18.1923 17.7943 17.9376 18.0511 17.6233 18.0511ZM4.68505 16.904L17.0544 16.904L17.0544 5.0094L4.68505 5.0094L4.68505 16.904L4.68505 16.904Z" id="Shape" fill="#FFFFFF" stroke="none" />
</svg>