<?xml version="1.0" encoding="utf-8"?>
<svg width="111px" height="26px" viewBox="0 0 111 26" version="1.1" xmlns:xlink="http://www.w3.org/1999/xlink" xmlns="http://www.w3.org/2000/svg">
  <g id="Group" transform="translate(0.5 0.5)">
    <g id="Мастеркард">
      <path d="M12.5 25C19.4036 25 25 19.4036 25 12.5C25 5.59644 19.4036 0 12.5 0C5.59644 0 0 5.59644 0 12.5C0 19.4036 5.59644 25 12.5 25Z" id="Oval" fill="#FFFFFF" fill-opacity="0.8" fill-rule="evenodd" stroke="none" />
      <path d="M12.5 25C19.4036 25 25 19.4036 25 12.5C25 5.59644 19.4036 0 12.5 0C5.59644 0 0 5.59644 0 12.5C0 19.4036 5.59644 25 12.5 25Z" transform="translate(16 0)" id="Oval-Copy" fill="#FFFFFF" fill-opacity="0.7" fill-rule="evenodd" stroke="none" />
    </g>
    <path d="M44.688 0.26L41.684 0.26C40.751 0.26 40.057 0.514 39.647 1.444L33.874 14.518L37.957 14.518C37.957 14.518 38.623 12.76 38.774 12.375C39.221 12.375 43.188 12.381 43.753 12.381C43.869 12.879 44.227 14.518 44.227 14.518L47.834 14.518L44.688 0.26ZM39.893 9.456C40.213 8.637 41.442 5.469 41.442 5.469C41.421 5.508 41.759 4.644 41.96 4.107L42.222 5.337C42.222 5.337 42.967 8.743 43.123 9.456L39.893 9.456ZM34.146 9.85C34.118 12.813 31.462 14.725 27.375 14.725C25.632 14.707 23.953 14.364 23.043 13.965L23.59 10.772L24.091 11C25.368 11.532 26.195 11.747 27.752 11.747C28.869 11.747 30.065 11.309 30.077 10.354C30.084 9.729 29.576 9.284 28.061 8.584C26.585 7.901 24.631 6.757 24.656 4.708C24.677 1.935 27.385 0 31.227 0C32.733 0 33.94 0.31 34.71 0.599L34.184 3.691L33.833 3.526C33.117 3.238 32.195 2.96 30.923 2.98C29.401 2.98 28.695 3.614 28.695 4.207C28.687 4.875 29.519 5.315 30.879 5.977C33.126 6.992 34.163 8.229 34.146 9.85ZM0 0.408L0.05 0.122L6.078 0.122C6.891 0.153 7.546 0.412 7.772 1.281L9.083 7.585C7.795 4.288 4.691 1.545 0 0.408ZM17.581 0.258L11.458 14.497L7.344 14.504L3.862 2.607C6.365 4.209 8.497 6.751 9.248 8.521L9.654 9.99L13.462 0.261L17.581 0.258L17.581 0.258ZM19.153 0.246L23.043 0.246L20.61 14.512L16.722 14.512L19.153 0.246Z" transform="translate(62 4.554016)" id="Shape" fill="#FFFFFF" stroke="none" />
  </g>
</svg>