<?xml version="1.0" encoding="utf-8"?>
<svg width="40px" height="37px" viewBox="0 0 40 37" version="1.1" xmlns:xlink="http://www.w3.org/1999/xlink" xmlns="http://www.w3.org/2000/svg">
  <defs>
    <linearGradient x1="0.2622764" y1="0.8273336" x2="1.3191093" y2="-0.17137627" id="gradient_1">
      <stop offset="0" stop-color="#E53656" />
      <stop offset="1" stop-color="#6082D8" />
    </linearGradient>
  </defs>
  <path d="M18 3C16.038 1.50082 13.032 0 10 0C4.347 0 -7.10543e-15 4.47466 -7.10543e-15 10C-7.10543e-15 17.1853 6.12 22.9014 16 31L16.3851 32.2248C17.1686 33.2958 18.8314 33.2958 19.6149 32.2248C19.9964 31.7034 20.2329 31.2152 20 31C29.88 22.9014 36 17.1853 36 10C36 4.47466 31.653 0 26 0C22.968 0 19.962 1.50082 18 3Z" transform="translate(2 2)" id="Лого" fill="url(#gradient_1)" fill-rule="evenodd" stroke="none" />
</svg>