<?xml version="1.0" encoding="utf-8"?>
<svg width="56px" height="56px" viewBox="0 0 56 56" version="1.1" xmlns:xlink="http://www.w3.org/1999/xlink" xmlns="http://www.w3.org/2000/svg">
  <g id="free-icon-menu-149176">
    <g id="Group">
      <path d="M28 0C12.561 0 0 12.561 0 28C0 43.439 12.561 56 28 56C43.439 56 56 43.439 56 28C56 12.561 43.439 0 28 0L28 0ZM28 54C13.663 54 2 42.336 2 28C2 13.664 13.663 2 28 2C42.337 2 54 13.664 54 28C54 42.336 42.337 54 28 54L28 54Z" id="Shape" fill="#000000" fill-rule="evenodd" stroke="none" />
      <path d="M25 0L1 0C0.447001 0 0 0.448 0 1C0 1.552 0.447 2 1 2L25 2C25.553 2 26 1.552 26 1C26 0.448 25.553 0 25 0L25 0Z" transform="translate(15 16)" id="Shape" fill="#000000" fill-rule="evenodd" stroke="none" />
      <path d="M25 0L1 0C0.447001 0 0 0.448 0 1C0 1.552 0.447 2 1 2L25 2C25.553 2 26 1.552 26 1C26 0.448 25.553 0 25 0L25 0Z" transform="translate(15 27)" id="Shape" fill="#000000" fill-rule="evenodd" stroke="none" />
      <path d="M25 0L1 0C0.447001 0 0 0.448002 0 1C0 1.552 0.447 2 1 2L25 2C25.553 2 26 1.552 26 1C26 0.448002 25.553 0 25 0L25 0Z" transform="translate(15 38)" id="Shape" fill="#000000" fill-rule="evenodd" stroke="none" />
    </g>
  </g>
</svg>