<?xml version="1.0" encoding="utf-8"?>
<svg width="26px" height="6px" viewBox="0 0 26 6" version="1.1" xmlns:xlink="http://www.w3.org/1999/xlink" xmlns="http://www.w3.org/2000/svg">
  <g id="Group" transform="translate(0.5 0.5)">
    <path d="M2.5 5C3.88071 5 5 3.88071 5 2.5C5 1.11929 3.88071 0 2.5 0C1.11929 0 0 1.11929 0 2.5C0 3.88071 1.11929 5 2.5 5Z" id="Oval-2" fill="#C5D5E6" fill-opacity="0.5" fill-rule="evenodd" stroke="none" />
    <path d="M2.5 5C3.88071 5 5 3.88071 5 2.5C5 1.11929 3.88071 0 2.5 0C1.11929 0 0 1.11929 0 2.5C0 3.88071 1.11929 5 2.5 5Z" transform="translate(10 0)" id="Oval-2-Copy" fill="#C5D5E6" fill-opacity="0.5" fill-rule="evenodd" stroke="none" />
    <path d="M2.5 5C3.88071 5 5 3.88071 5 2.5C5 1.11929 3.88071 0 2.5 0C1.11929 0 0 1.11929 0 2.5C0 3.88071 1.11929 5 2.5 5Z" transform="translate(20 0)" id="Oval-2-Copy-2" fill="#C5D5E6" fill-opacity="0.5" fill-rule="evenodd" stroke="none" />
  </g>
</svg>